<svg xmlns="http://www.w3.org/2000/svg" width="820" height="357" viewBox="0 0 820 357">
  <g id="_25" data-name="25" transform="translate(-390 -2983)">
    <path id="Trazado_890175" data-name="Trazado 890175" d="M0,0H820V357H0Z" transform="translate(390 2983)" fill="#fff"/>
    <path id="Trazado_890176" data-name="Trazado 890176" d="M35.789,21V6.781h4.375a6.644,6.644,0,0,1,3.354.845,5.89,5.89,0,0,1,2.31,2.4,7.41,7.41,0,0,1,.83,3.54v.654a7.431,7.431,0,0,1-.815,3.525,5.84,5.84,0,0,1-2.3,2.393,6.694,6.694,0,0,1-3.35.859Zm2.93-11.846v9.492h1.416a3.181,3.181,0,0,0,2.627-1.123,5.075,5.075,0,0,0,.928-3.213v-.752a5.156,5.156,0,0,0-.9-3.286,3.171,3.171,0,0,0-2.627-1.118ZM51.58,21H48.748V10.434H51.58Zm-3-13.3a1.39,1.39,0,0,1,.425-1.045,1.831,1.831,0,0,1,2.31,0,1.382,1.382,0,0,1,.43,1.045,1.386,1.386,0,0,1-.435,1.055,1.81,1.81,0,0,1-2.295,0A1.386,1.386,0,0,1,48.582,7.7ZM59.627,18.08a.909.909,0,0,0-.513-.815,5.824,5.824,0,0,0-1.646-.532q-3.77-.791-3.77-3.2a2.9,2.9,0,0,1,1.167-2.349,4.708,4.708,0,0,1,3.052-.942,5.067,5.067,0,0,1,3.218.947,2.985,2.985,0,0,1,1.206,2.461H59.52a1.366,1.366,0,0,0-.391-1,1.653,1.653,0,0,0-1.221-.4,1.689,1.689,0,0,0-1.1.322,1.017,1.017,0,0,0-.391.82.87.87,0,0,0,.444.757,4.571,4.571,0,0,0,1.5.5,12.244,12.244,0,0,1,1.777.474,2.92,2.92,0,0,1,2.236,2.842,2.756,2.756,0,0,1-1.24,2.339,5.35,5.35,0,0,1-3.2.894,5.588,5.588,0,0,1-2.358-.474,3.957,3.957,0,0,1-1.616-1.3,3.018,3.018,0,0,1-.586-1.782h2.676a1.473,1.473,0,0,0,.557,1.152,2.208,2.208,0,0,0,1.387.4,2.044,2.044,0,0,0,1.226-.308A.957.957,0,0,0,59.627,18.08ZM67.566,7.836v2.6h1.807V12.5H67.566v5.273a1.259,1.259,0,0,0,.225.84,1.128,1.128,0,0,0,.859.254,4.5,4.5,0,0,0,.83-.068v2.139a5.81,5.81,0,0,1-1.709.254q-2.969,0-3.027-3V12.5H63.2v-2.07h1.543v-2.6Zm9.316,5.244A7.667,7.667,0,0,0,75.867,13a2.067,2.067,0,0,0-2.1,1.084V21H70.945V10.434h2.666l.078,1.26a2.615,2.615,0,0,1,2.354-1.455,2.957,2.957,0,0,1,.879.127ZM81.219,21H78.387V10.434h2.832Zm-3-13.3a1.39,1.39,0,0,1,.425-1.045,1.831,1.831,0,0,1,2.31,0,1.382,1.382,0,0,1,.43,1.045,1.386,1.386,0,0,1-.435,1.055,1.81,1.81,0,0,1-2.295,0A1.386,1.386,0,0,1,78.221,7.7Zm14.844,8.115a6.4,6.4,0,0,1-1.084,3.96A3.591,3.591,0,0,1,88.953,21.2a3.3,3.3,0,0,1-2.744-1.318L86.082,21H83.543V6h2.822v5.381a3.214,3.214,0,0,1,2.568-1.143,3.62,3.62,0,0,1,3.032,1.421,6.408,6.408,0,0,1,1.1,4Zm-2.822-.205a4.2,4.2,0,0,0-.508-2.339,1.717,1.717,0,0,0-1.514-.737,1.862,1.862,0,0,0-1.855,1.1v4.17A1.887,1.887,0,0,0,88.24,18.92a1.742,1.742,0,0,0,1.8-1.348A6.952,6.952,0,0,0,90.242,15.609Zm10.889,4.316A3.539,3.539,0,0,1,98.24,21.2a3.338,3.338,0,0,1-2.593-.977,4.169,4.169,0,0,1-.913-2.861V10.434h2.822v6.834q0,1.652,1.5,1.652a2.038,2.038,0,0,0,1.973-1V10.434h2.832V21h-2.656Zm9.258-1.006a1.851,1.851,0,0,0,1.27-.43,1.506,1.506,0,0,0,.508-1.143h2.646a3.62,3.62,0,0,1-.586,1.968,3.866,3.866,0,0,1-1.577,1.387,4.936,4.936,0,0,1-2.212.493,4.587,4.587,0,0,1-3.574-1.44,5.7,5.7,0,0,1-1.309-3.979V15.59a5.635,5.635,0,0,1,1.3-3.9,4.534,4.534,0,0,1,3.564-1.455,4.444,4.444,0,0,1,3.179,1.128,3.994,3.994,0,0,1,1.216,3h-2.646a1.939,1.939,0,0,0-.508-1.34,1.887,1.887,0,0,0-2.778.2,4.166,4.166,0,0,0-.5,2.333v.293a4.219,4.219,0,0,0,.5,2.347A1.721,1.721,0,0,0,110.389,18.92ZM119.4,21H116.57V10.434H119.4Zm-3-13.3a1.39,1.39,0,0,1,.425-1.045,1.831,1.831,0,0,1,2.31,0,1.382,1.382,0,0,1,.43,1.045,1.386,1.386,0,0,1-.435,1.055,1.81,1.81,0,0,1-2.295,0A1.386,1.386,0,0,1,116.4,7.7Zm4.883,7.92a6.266,6.266,0,0,1,.605-2.8,4.432,4.432,0,0,1,1.743-1.9,5.086,5.086,0,0,1,2.642-.674,4.812,4.812,0,0,1,3.491,1.309,5.252,5.252,0,0,1,1.509,3.555l.02.723a5.523,5.523,0,0,1-1.357,3.9,5.261,5.261,0,0,1-7.29,0,5.62,5.62,0,0,1-1.362-3.984Zm2.822.2a3.95,3.95,0,0,0,.566,2.3,2.035,2.035,0,0,0,3.223.01,4.322,4.322,0,0,0,.576-2.518,3.91,3.91,0,0,0-.576-2.289,1.873,1.873,0,0,0-1.621-.812,1.842,1.842,0,0,0-1.6.807A4.395,4.395,0,0,0,124.109,15.819ZM126.834,6h3.076l-2.705,3.027H124.91Zm8.8,4.434.088,1.221a3.689,3.689,0,0,1,3.037-1.416,3.066,3.066,0,0,1,2.5.986,4.6,4.6,0,0,1,.84,2.949V21h-2.822V14.242a1.831,1.831,0,0,0-.391-1.3,1.749,1.749,0,0,0-1.3-.405,1.942,1.942,0,0,0-1.787,1.016V21h-2.822V10.434ZM154.08,21.2A5.187,5.187,0,0,1,150.3,19.77a5.068,5.068,0,0,1-1.46-3.8V15.7a6.383,6.383,0,0,1,.615-2.847,4.515,4.515,0,0,1,1.743-1.934,4.893,4.893,0,0,1,2.573-.679,4.385,4.385,0,0,1,3.413,1.367,5.555,5.555,0,0,1,1.245,3.877v1.152H151.7a2.622,2.622,0,0,0,.825,1.66,2.5,2.5,0,0,0,1.743.625,3.046,3.046,0,0,0,2.549-1.182l1.387,1.553a4.237,4.237,0,0,1-1.719,1.4A5.639,5.639,0,0,1,154.08,21.2Zm-.322-8.682a1.764,1.764,0,0,0-1.362.569,2.946,2.946,0,0,0-.669,1.628h3.926v-.226a2.1,2.1,0,0,0-.508-1.457A1.819,1.819,0,0,0,153.758,12.514Zm8.867-2.08.088,1.221a3.689,3.689,0,0,1,3.037-1.416,3.066,3.066,0,0,1,2.5.986,4.6,4.6,0,0,1,.84,2.949V21h-2.822V14.242a1.831,1.831,0,0,0-.391-1.3,1.749,1.749,0,0,0-1.3-.405,1.942,1.942,0,0,0-1.787,1.016V21h-2.822V10.434Zm17.773-.205a3.007,3.007,0,0,1,2.383,1.182L183.816,6h2.764l-2.6,15h-2.461l.156-1.133a3.42,3.42,0,0,1-2.754,1.338,3.042,3.042,0,0,1-1.729-.518,3.259,3.259,0,0,1-1.147-1.46A5.88,5.88,0,0,1,175.6,17.1a8,8,0,0,1,.029-1.191l.059-.439a8.458,8.458,0,0,1,.9-2.852,4.708,4.708,0,0,1,1.641-1.826A3.868,3.868,0,0,1,180.4,10.229Zm-2,5.684a7.909,7.909,0,0,0-.049,1.25q.1,1.719,1.387,1.748a2.357,2.357,0,0,0,2.021-1.094l.752-4.2a1.56,1.56,0,0,0-1.523-1.094,2.007,2.007,0,0,0-1.675.776A5.22,5.22,0,0,0,178.4,15.912ZM192.293,21a2.851,2.851,0,0,1-.107-.957,3.579,3.579,0,0,1-2.7,1.152,3.243,3.243,0,0,1-2.3-.9,2.733,2.733,0,0,1-.854-2.183,3.159,3.159,0,0,1,1.45-2.651,6.583,6.583,0,0,1,3.706-.923l1.289.02.137-.635a2.2,2.2,0,0,0,.029-.615,1.058,1.058,0,0,0-.347-.718,1.194,1.194,0,0,0-.786-.269,1.682,1.682,0,0,0-1.094.317,1.538,1.538,0,0,0-.576.972l-2.764.01a3.072,3.072,0,0,1,1.392-2.456,5.389,5.389,0,0,1,3.267-.923,3.9,3.9,0,0,1,2.813,1.069,3.128,3.128,0,0,1,.85,2.651l-.811,5.059-.049.625a3.015,3.015,0,0,0,.166,1.172L195,21Zm-2.119-1.943a2.522,2.522,0,0,0,2.08-1.035L192.6,16.2l-.957-.01a2.674,2.674,0,0,0-2.2.928,1.615,1.615,0,0,0-.3.791.937.937,0,0,0,.22.835A1.113,1.113,0,0,0,190.174,19.057Zm12.09-11.221-.459,2.6h1.758L203.2,12.5h-1.758l-.9,5.293a1.346,1.346,0,0,0,.078.762q.137.264.664.283.156.01.84-.049l-.2,2.158a4.632,4.632,0,0,1-1.582.225,2.482,2.482,0,0,1-2.021-.85,3.07,3.07,0,0,1-.547-2.246l.908-5.576H197.2l.361-2.07h1.494l.449-2.6ZM209.441,21a2.851,2.851,0,0,1-.107-.957,3.579,3.579,0,0,1-2.7,1.152,3.243,3.243,0,0,1-2.3-.9,2.733,2.733,0,0,1-.854-2.183,3.159,3.159,0,0,1,1.45-2.651,6.583,6.583,0,0,1,3.706-.923l1.289.02.137-.635a2.2,2.2,0,0,0,.029-.615,1.058,1.058,0,0,0-.347-.718,1.194,1.194,0,0,0-.786-.269,1.682,1.682,0,0,0-1.094.317,1.538,1.538,0,0,0-.576.972l-2.764.01a3.072,3.072,0,0,1,1.392-2.456,5.389,5.389,0,0,1,3.267-.923A3.9,3.9,0,0,1,212,11.308a3.128,3.128,0,0,1,.85,2.651l-.811,5.059-.049.625a3.015,3.015,0,0,0,.166,1.172l-.01.186Zm-2.119-1.943a2.522,2.522,0,0,0,2.08-1.035l.342-1.826-.957-.01a2.674,2.674,0,0,0-2.2.928,1.615,1.615,0,0,0-.3.791.937.937,0,0,0,.22.835A1.113,1.113,0,0,0,207.322,19.057Zm12.627-1.035q.156-.781-1.084-1.133l-.889-.225q-3.154-.869-3.066-3.066a3.035,3.035,0,0,1,1.323-2.437,4.927,4.927,0,0,1,3.071-.923,4.42,4.42,0,0,1,2.891.947,3.121,3.121,0,0,1,1.123,2.471l-2.734-.01a1.2,1.2,0,0,0-1.348-1.377,1.939,1.939,0,0,0-1.118.322,1.327,1.327,0,0,0-.581.869q-.146.781,1.182,1.1l.391.088a7.856,7.856,0,0,1,2.061.737,3.11,3.11,0,0,1,1.1,1.03,2.55,2.55,0,0,1,.356,1.475,2.814,2.814,0,0,1-.649,1.758,3.975,3.975,0,0,1-1.7,1.162,5.92,5.92,0,0,1-2.271.381,4.461,4.461,0,0,1-2.93-1.011,3.259,3.259,0,0,1-1.191-2.563l2.6.02a1.428,1.428,0,0,0,1.621,1.533,2.306,2.306,0,0,0,1.255-.312A1.234,1.234,0,0,0,219.949,18.021Zm8.965,3.174a4.6,4.6,0,0,1-2.456-.679,4.115,4.115,0,0,1-1.6-1.836,5.117,5.117,0,0,1-.41-2.573l.029-.391a6.831,6.831,0,0,1,.9-2.832,5.427,5.427,0,0,1,1.934-1.987,4.784,4.784,0,0,1,2.617-.659,3.655,3.655,0,0,1,3.091,1.5,5.146,5.146,0,0,1,.8,3.7l-.156,1.2h-6.475a2.267,2.267,0,0,0,.5,1.641,1.9,1.9,0,0,0,1.465.635,3.379,3.379,0,0,0,2.637-1.172l1.26,1.563a3.919,3.919,0,0,1-1.719,1.4A5.621,5.621,0,0,1,228.914,21.2Zm.879-8.682a1.957,1.957,0,0,0-1.353.479,4.2,4.2,0,0,0-1.06,1.729h3.789l.059-.254a2.589,2.589,0,0,0,.01-.742,1.418,1.418,0,0,0-.479-.884A1.5,1.5,0,0,0,229.793,12.514Zm10.273-4.678-.459,2.6h1.758L241,12.5h-1.758l-.9,5.293a1.346,1.346,0,0,0,.078.762q.137.264.664.283.156.01.84-.049l-.2,2.158a4.632,4.632,0,0,1-1.582.225,2.482,2.482,0,0,1-2.021-.85,3.07,3.07,0,0,1-.547-2.246l.908-5.576H235l.361-2.07h1.494l.449-2.6Zm7.314,7.393a15.1,15.1,0,0,1,.591-4.238A12.312,12.312,0,0,1,249.734,7.3a7.5,7.5,0,0,1,2.432-2.344l.371,1.191a7.778,7.778,0,0,0-2.339,3.34,14.479,14.479,0,0,0-1,5.029l-.01.83a14.554,14.554,0,0,0,1.377,6.543,7.815,7.815,0,0,0,1.973,2.6l-.371,1.1a7.74,7.74,0,0,1-2.48-2.422A13.574,13.574,0,0,1,247.381,15.229ZM260.809,21a3.8,3.8,0,0,1-.254-1.113,4.031,4.031,0,0,1-3.008,1.309,3.73,3.73,0,0,1-2.563-.884,2.859,2.859,0,0,1-1-2.241,2.987,2.987,0,0,1,1.255-2.563,5.916,5.916,0,0,1,3.53-.913h1.758v-.83a2.029,2.029,0,0,0-.566-1.509,2.276,2.276,0,0,0-1.67-.562,2.634,2.634,0,0,0-1.621.488,1.439,1.439,0,0,0-.654,1.182H254.2a2.493,2.493,0,0,1,.562-1.528,3.832,3.832,0,0,1,1.523-1.167,5.125,5.125,0,0,1,2.114-.43,4.177,4.177,0,0,1,2.861.913,3.294,3.294,0,0,1,1.074,2.515v4.863a5.946,5.946,0,0,0,.371,2.314V21Zm-3-1.377a3.175,3.175,0,0,0,1.611-.439,2.658,2.658,0,0,0,1.1-1.143V15.873h-1.416q-3.32,0-3.32,1.943a1.645,1.645,0,0,0,.566,1.328A2.177,2.177,0,0,0,257.811,19.623Zm9.053-.1h6.182V21h-8.389V19.672l5.83-7.744h-5.742V10.434h8.008v1.279Zm14.736.43a3.837,3.837,0,0,1-3.1,1.24,3.285,3.285,0,0,1-2.573-.981,4.248,4.248,0,0,1-.894-2.905V10.434h1.807V17.26q0,2.4,1.953,2.4a2.7,2.7,0,0,0,2.754-1.543V10.434h1.807V21h-1.719ZM288.064,21h-1.807V6h1.807Zm7.061-5.674a15.106,15.106,0,0,1-.571,4.175,12.345,12.345,0,0,1-1.748,3.687,7.659,7.659,0,0,1-2.466,2.4l-.381-1.1a7.851,7.851,0,0,0,2.417-3.579,15.484,15.484,0,0,0,.933-5.386v-.312a16.076,16.076,0,0,0-.43-3.813,12.87,12.87,0,0,0-1.2-3.159,7.3,7.3,0,0,0-1.724-2.178l.381-1.1A7.629,7.629,0,0,1,292.8,7.338a12.371,12.371,0,0,1,1.748,3.682A15.455,15.455,0,0,1,295.125,15.326Zm11.436,2.227,1.963-7.119h2.949L307.908,21h-2.7l-3.564-10.566H304.6Zm11.875.527a.909.909,0,0,0-.513-.815,5.824,5.824,0,0,0-1.646-.532q-3.77-.791-3.77-3.2a2.9,2.9,0,0,1,1.167-2.349,4.708,4.708,0,0,1,3.052-.942,5.067,5.067,0,0,1,3.218.947,2.985,2.985,0,0,1,1.206,2.461h-2.822a1.366,1.366,0,0,0-.391-1,1.653,1.653,0,0,0-1.221-.4,1.689,1.689,0,0,0-1.1.322,1.017,1.017,0,0,0-.391.82.87.87,0,0,0,.444.757,4.571,4.571,0,0,0,1.5.5,12.244,12.244,0,0,1,1.777.474,2.92,2.92,0,0,1,2.236,2.842,2.756,2.756,0,0,1-1.24,2.339,5.35,5.35,0,0,1-3.2.894,5.588,5.588,0,0,1-2.358-.474,3.957,3.957,0,0,1-1.616-1.3,3.018,3.018,0,0,1-.586-1.782h2.676a1.473,1.473,0,0,0,.557,1.152,2.208,2.208,0,0,0,1.387.4,2.044,2.044,0,0,0,1.226-.308A.957.957,0,0,0,318.436,18.08Zm4.707,1.533a1.421,1.421,0,0,1,.454-1.094,1.764,1.764,0,0,1,2.285,0,1.421,1.421,0,0,1,.454,1.094,1.4,1.4,0,0,1-.449,1.079,1.794,1.794,0,0,1-2.295,0A1.4,1.4,0,0,1,323.143,19.613ZM336.9,15.99V21h-2.93V6.781h5.547a6.417,6.417,0,0,1,2.817.586,4.318,4.318,0,0,1,1.87,1.665,4.643,4.643,0,0,1,.654,2.456,4.083,4.083,0,0,1-1.431,3.3,5.959,5.959,0,0,1-3.96,1.206Zm0-2.373h2.617a2.573,2.573,0,0,0,1.772-.547,1.989,1.989,0,0,0,.61-1.562,2.345,2.345,0,0,0-.615-1.689,2.3,2.3,0,0,0-1.7-.664H336.9Zm9.219,2a6.266,6.266,0,0,1,.605-2.8,4.432,4.432,0,0,1,1.743-1.9,5.086,5.086,0,0,1,2.642-.674,4.812,4.812,0,0,1,3.491,1.309,5.252,5.252,0,0,1,1.509,3.555l.02.723a5.523,5.523,0,0,1-1.357,3.9,5.261,5.261,0,0,1-7.29,0,5.62,5.62,0,0,1-1.362-3.984Zm2.822.2a3.95,3.95,0,0,0,.566,2.3,2.035,2.035,0,0,0,3.223.01,4.322,4.322,0,0,0,.576-2.518,3.91,3.91,0,0,0-.576-2.289,1.873,1.873,0,0,0-1.621-.812,1.842,1.842,0,0,0-1.6.807A4.395,4.395,0,0,0,348.943,15.819Zm18.447-.005a6.4,6.4,0,0,1-1.084,3.96,3.591,3.591,0,0,1-3.027,1.421,3.3,3.3,0,0,1-2.744-1.318L360.408,21h-2.539V6h2.822v5.381a3.214,3.214,0,0,1,2.568-1.143,3.62,3.62,0,0,1,3.032,1.421,6.408,6.408,0,0,1,1.1,4Zm-2.822-.205a4.2,4.2,0,0,0-.508-2.339,1.717,1.717,0,0,0-1.514-.737,1.862,1.862,0,0,0-1.855,1.1v4.17a1.887,1.887,0,0,0,1.875,1.113,1.742,1.742,0,0,0,1.8-1.348A6.952,6.952,0,0,0,364.568,15.609ZM372.107,21h-2.832V6h2.832Zm8.447,0a3.134,3.134,0,0,1-.283-.947,3.415,3.415,0,0,1-2.666,1.143,3.752,3.752,0,0,1-2.573-.9,2.89,2.89,0,0,1-1.021-2.266,2.986,2.986,0,0,1,1.245-2.578,6.144,6.144,0,0,1,3.6-.908h1.3v-.605a1.741,1.741,0,0,0-.376-1.172,1.479,1.479,0,0,0-1.187-.439,1.682,1.682,0,0,0-1.118.342,1.161,1.161,0,0,0-.405.938h-2.822a2.835,2.835,0,0,1,.566-1.7,3.744,3.744,0,0,1,1.6-1.226,5.837,5.837,0,0,1,2.324-.444,4.611,4.611,0,0,1,3.1.981,3.433,3.433,0,0,1,1.147,2.759v4.58a5.051,5.051,0,0,0,.42,2.275V21Zm-2.334-1.963a2.431,2.431,0,0,0,1.152-.278,1.828,1.828,0,0,0,.781-.747V16.2H379.1q-2.119,0-2.256,1.465l-.01.166a1.13,1.13,0,0,0,.371.869A1.441,1.441,0,0,0,378.221,19.037Zm11.328-.117a1.851,1.851,0,0,0,1.27-.43,1.506,1.506,0,0,0,.508-1.143h2.646a3.62,3.62,0,0,1-.586,1.968A3.866,3.866,0,0,1,391.81,20.7a4.936,4.936,0,0,1-2.212.493,4.587,4.587,0,0,1-3.574-1.44,5.7,5.7,0,0,1-1.309-3.979V15.59a5.635,5.635,0,0,1,1.3-3.9,4.534,4.534,0,0,1,3.564-1.455,4.444,4.444,0,0,1,3.179,1.128,3.994,3.994,0,0,1,1.216,3h-2.646a1.939,1.939,0,0,0-.508-1.34,1.887,1.887,0,0,0-2.778.2,4.166,4.166,0,0,0-.5,2.333v.293a4.219,4.219,0,0,0,.5,2.347A1.721,1.721,0,0,0,389.549,18.92ZM398.563,21H395.73V10.434h2.832Zm-3-13.3a1.39,1.39,0,0,1,.425-1.045,1.831,1.831,0,0,1,2.31,0,1.382,1.382,0,0,1,.43,1.045,1.386,1.386,0,0,1-.435,1.055,1.81,1.81,0,0,1-2.295,0A1.386,1.386,0,0,1,395.564,7.7Zm4.883,7.92a6.266,6.266,0,0,1,.605-2.8,4.432,4.432,0,0,1,1.743-1.9,5.086,5.086,0,0,1,2.642-.674,4.812,4.812,0,0,1,3.491,1.309,5.252,5.252,0,0,1,1.509,3.555l.02.723a5.523,5.523,0,0,1-1.357,3.9,5.261,5.261,0,0,1-7.29,0,5.62,5.62,0,0,1-1.362-3.984Zm2.822.2a3.95,3.95,0,0,0,.566,2.3,2.035,2.035,0,0,0,3.223.01,4.322,4.322,0,0,0,.576-2.518,3.91,3.91,0,0,0-.576-2.289,1.873,1.873,0,0,0-1.621-.812,1.842,1.842,0,0,0-1.6.807A4.395,4.395,0,0,0,403.27,15.819ZM405.994,6h3.076l-2.705,3.027H404.07Zm8.8,4.434.088,1.221a3.689,3.689,0,0,1,3.037-1.416,3.066,3.066,0,0,1,2.5.986,4.6,4.6,0,0,1,.84,2.949V21h-2.822V14.242a1.831,1.831,0,0,0-.391-1.3,1.749,1.749,0,0,0-1.3-.405,1.942,1.942,0,0,0-1.787,1.016V21h-2.822V10.434ZM433.24,21.2a5.187,5.187,0,0,1-3.784-1.426,5.068,5.068,0,0,1-1.46-3.8V15.7a6.383,6.383,0,0,1,.615-2.847,4.515,4.515,0,0,1,1.743-1.934,4.893,4.893,0,0,1,2.573-.679,4.385,4.385,0,0,1,3.413,1.367,5.555,5.555,0,0,1,1.245,3.877v1.152h-6.729a2.622,2.622,0,0,0,.825,1.66,2.5,2.5,0,0,0,1.743.625,3.046,3.046,0,0,0,2.549-1.182l1.387,1.553a4.237,4.237,0,0,1-1.719,1.4A5.639,5.639,0,0,1,433.24,21.2Zm-.322-8.682a1.764,1.764,0,0,0-1.362.569,2.946,2.946,0,0,0-.669,1.628h3.926v-.226a2.1,2.1,0,0,0-.508-1.457A1.819,1.819,0,0,0,432.918,12.514Zm8.867-2.08.088,1.221a3.689,3.689,0,0,1,3.037-1.416,3.066,3.066,0,0,1,2.5.986,4.6,4.6,0,0,1,.84,2.949V21h-2.822V14.242a1.831,1.831,0,0,0-.391-1.3,1.749,1.749,0,0,0-1.3-.405,1.942,1.942,0,0,0-1.787,1.016V21h-2.822V10.434Zm13.174,5.205a6.193,6.193,0,0,1,1.157-3.916,3.75,3.75,0,0,1,3.12-1.484,3.289,3.289,0,0,1,2.705,1.191l.117-1h2.559V20.648a4.516,4.516,0,0,1-.63,2.412,4.045,4.045,0,0,1-1.772,1.563,6.231,6.231,0,0,1-2.676.537,5.794,5.794,0,0,1-2.266-.464,4.021,4.021,0,0,1-1.67-1.2l1.25-1.719a3.306,3.306,0,0,0,2.559,1.182,2.42,2.42,0,0,0,1.748-.6,2.253,2.253,0,0,0,.625-1.7v-.566a3.264,3.264,0,0,1-2.568,1.1,3.74,3.74,0,0,1-3.081-1.489,6.191,6.191,0,0,1-1.177-3.95Zm2.822.21a3.856,3.856,0,0,0,.576,2.254,1.833,1.833,0,0,0,1.582.817,1.96,1.96,0,0,0,1.846-.968V13.5a1.955,1.955,0,0,0-1.826-.968,1.844,1.844,0,0,0-1.6.831A4.346,4.346,0,0,0,457.781,15.849ZM471.648,21.2a5.187,5.187,0,0,1-3.784-1.426,5.068,5.068,0,0,1-1.46-3.8V15.7a6.383,6.383,0,0,1,.615-2.847,4.515,4.515,0,0,1,1.743-1.934,4.893,4.893,0,0,1,2.573-.679,4.385,4.385,0,0,1,3.413,1.367,5.555,5.555,0,0,1,1.245,3.877v1.152h-6.729a2.622,2.622,0,0,0,.825,1.66,2.5,2.5,0,0,0,1.743.625,3.046,3.046,0,0,0,2.549-1.182l1.387,1.553a4.237,4.237,0,0,1-1.719,1.4A5.639,5.639,0,0,1,471.648,21.2Zm-.322-8.682a1.764,1.764,0,0,0-1.362.569,2.946,2.946,0,0,0-.669,1.628h3.926v-.226a2.1,2.1,0,0,0-.508-1.457A1.819,1.819,0,0,0,471.326,12.514Zm8.867-2.08.088,1.221a3.689,3.689,0,0,1,3.037-1.416,3.066,3.066,0,0,1,2.5.986,4.6,4.6,0,0,1,.84,2.949V21h-2.822V14.242a1.831,1.831,0,0,0-.391-1.3,1.749,1.749,0,0,0-1.3-.405,1.942,1.942,0,0,0-1.787,1.016V21h-2.822V10.434ZM493.66,21.2a5.187,5.187,0,0,1-3.784-1.426,5.068,5.068,0,0,1-1.46-3.8V15.7a6.383,6.383,0,0,1,.615-2.847,4.515,4.515,0,0,1,1.743-1.934,4.893,4.893,0,0,1,2.573-.679,4.385,4.385,0,0,1,3.413,1.367,5.555,5.555,0,0,1,1.245,3.877v1.152h-6.729a2.622,2.622,0,0,0,.825,1.66,2.5,2.5,0,0,0,1.743.625,3.046,3.046,0,0,0,2.549-1.182l1.387,1.553a4.237,4.237,0,0,1-1.719,1.4A5.639,5.639,0,0,1,493.66,21.2Zm-.322-8.682a1.764,1.764,0,0,0-1.362.569,2.946,2.946,0,0,0-.669,1.628h3.926v-.226a2.1,2.1,0,0,0-.508-1.457A1.819,1.819,0,0,0,493.338,12.514Zm12.207.566A7.668,7.668,0,0,0,504.529,13a2.067,2.067,0,0,0-2.1,1.084V21h-2.822V10.434h2.666l.078,1.26a2.615,2.615,0,0,1,2.354-1.455,2.957,2.957,0,0,1,.879.127ZM512.732,21a3.135,3.135,0,0,1-.283-.947,3.415,3.415,0,0,1-2.666,1.143,3.752,3.752,0,0,1-2.573-.9,2.89,2.89,0,0,1-1.021-2.266,2.986,2.986,0,0,1,1.245-2.578,6.144,6.144,0,0,1,3.6-.908h1.3v-.605a1.741,1.741,0,0,0-.376-1.172,1.479,1.479,0,0,0-1.187-.439,1.682,1.682,0,0,0-1.118.342,1.161,1.161,0,0,0-.405.938h-2.822a2.835,2.835,0,0,1,.566-1.7,3.744,3.744,0,0,1,1.6-1.226,5.837,5.837,0,0,1,2.324-.444,4.611,4.611,0,0,1,3.1.981,3.433,3.433,0,0,1,1.147,2.759v4.58a5.052,5.052,0,0,0,.42,2.275V21ZM510.4,19.037a2.431,2.431,0,0,0,1.152-.278,1.828,1.828,0,0,0,.781-.747V16.2h-1.055q-2.119,0-2.256,1.465l-.01.166a1.13,1.13,0,0,0,.371.869A1.441,1.441,0,0,0,510.4,19.037ZM520.311,21h-2.832V6h2.832Zm7.52-5.771a15.1,15.1,0,0,1,.591-4.238A12.311,12.311,0,0,1,530.184,7.3a7.5,7.5,0,0,1,2.432-2.344l.371,1.191a7.778,7.778,0,0,0-2.339,3.34,14.479,14.479,0,0,0-1,5.029l-.01.83a14.554,14.554,0,0,0,1.377,6.543,7.815,7.815,0,0,0,1.973,2.6l-.371,1.1a7.74,7.74,0,0,1-2.48-2.422A13.574,13.574,0,0,1,527.83,15.229Zm12.012-3.174a5.414,5.414,0,0,0-.889-.068,2.381,2.381,0,0,0-2.412,1.514V21h-1.807V10.434h1.758l.029,1.221a2.813,2.813,0,0,1,2.52-1.416,1.846,1.846,0,0,1,.8.137Zm.986,3.564a6.241,6.241,0,0,1,.61-2.793,4.553,4.553,0,0,1,1.7-1.914,4.626,4.626,0,0,1,2.485-.674,4.456,4.456,0,0,1,3.491,1.494,5.748,5.748,0,0,1,1.333,3.975v.127a6.3,6.3,0,0,1-.591,2.769,4.486,4.486,0,0,1-1.689,1.909,4.679,4.679,0,0,1-2.524.684,4.445,4.445,0,0,1-3.481-1.494,5.719,5.719,0,0,1-1.333-3.955Zm1.816.215a4.52,4.52,0,0,0,.815,2.822,2.763,2.763,0,0,0,4.37-.015,4.943,4.943,0,0,0,.811-3.022,4.513,4.513,0,0,0-.825-2.817,2.623,2.623,0,0,0-2.192-1.079,2.594,2.594,0,0,0-2.158,1.064A4.906,4.906,0,0,0,542.645,15.834Zm11.934-5.4V22.221q0,3.047-2.764,3.047a3.371,3.371,0,0,1-1.1-.175V23.656a3.493,3.493,0,0,0,.82.078,1.227,1.227,0,0,0,.923-.327,1.619,1.619,0,0,0,.317-1.139V10.434Zm-1.992-2.8a1.083,1.083,0,0,1,.269-.737.987.987,0,0,1,.786-.308,1.024,1.024,0,0,1,.8.3,1.067,1.067,0,0,1,.273.742,1.032,1.032,0,0,1-.273.732,1.043,1.043,0,0,1-.8.293,1.01,1.01,0,0,1-.791-.293A1.054,1.054,0,0,1,552.586,7.631Zm4.424,7.988a6.241,6.241,0,0,1,.61-2.793,4.553,4.553,0,0,1,1.7-1.914,4.626,4.626,0,0,1,2.485-.674,4.456,4.456,0,0,1,3.491,1.494,5.748,5.748,0,0,1,1.333,3.975v.127a6.3,6.3,0,0,1-.591,2.769,4.486,4.486,0,0,1-1.689,1.909,4.679,4.679,0,0,1-2.524.684,4.445,4.445,0,0,1-3.481-1.494,5.719,5.719,0,0,1-1.333-3.955Zm1.816.215a4.52,4.52,0,0,0,.815,2.822,2.763,2.763,0,0,0,4.37-.015,4.943,4.943,0,0,0,.811-3.022A4.513,4.513,0,0,0,564,12.8a2.623,2.623,0,0,0-2.192-1.079,2.594,2.594,0,0,0-2.158,1.064A4.906,4.906,0,0,0,558.826,15.834Zm14.238-.508a15.106,15.106,0,0,1-.571,4.175,12.345,12.345,0,0,1-1.748,3.687,7.659,7.659,0,0,1-2.466,2.4l-.381-1.1a7.851,7.851,0,0,0,2.417-3.579,15.484,15.484,0,0,0,.933-5.386v-.312a16.077,16.077,0,0,0-.43-3.813,12.87,12.87,0,0,0-1.2-3.159A7.3,7.3,0,0,0,567.9,6.059l.381-1.1a7.629,7.629,0,0,1,2.456,2.383,12.371,12.371,0,0,1,1.748,3.682A15.454,15.454,0,0,1,573.064,15.326Z" transform="translate(496 2998)" fill="#12263f"/>
    <path id="Trazado_890177" data-name="Trazado 890177" d="M8.535,10.707l.738-6.5h7.172V6.321H11.356L11.04,9.072a4.027,4.027,0,0,1,1.925-.483A3.689,3.689,0,0,1,15.83,9.723,4.529,4.529,0,0,1,16.867,12.9a4.64,4.64,0,0,1-.523,2.219,3.691,3.691,0,0,1-1.5,1.521,4.678,4.678,0,0,1-2.3.541,4.968,4.968,0,0,1-2.153-.47,3.819,3.819,0,0,1-1.569-1.323A3.605,3.605,0,0,1,8.21,13.44h2.514a1.878,1.878,0,0,0,.558,1.244,1.769,1.769,0,0,0,1.252.444,1.562,1.562,0,0,0,1.327-.62,2.87,2.87,0,0,0,.466-1.753,2.374,2.374,0,0,0-.536-1.67,1.967,1.967,0,0,0-1.521-.58,2.2,2.2,0,0,0-1.468.475l-.246.229Zm18.563,1A6.483,6.483,0,0,1,26,15.77a3.835,3.835,0,0,1-3.217,1.406,3.862,3.862,0,0,1-3.2-1.38,6.293,6.293,0,0,1-1.134-3.955V9.485a6.4,6.4,0,0,1,1.112-4.069,3.864,3.864,0,0,1,3.2-1.389,3.867,3.867,0,0,1,3.2,1.375A6.273,6.273,0,0,1,27.1,9.354Zm-2.54-2.59A4.686,4.686,0,0,0,24.123,6.8a1.47,1.47,0,0,0-1.358-.726,1.444,1.444,0,0,0-1.323.691,4.385,4.385,0,0,0-.453,2.16V12.04a4.919,4.919,0,0,0,.426,2.327,1.451,1.451,0,0,0,1.367.761,1.426,1.426,0,0,0,1.345-.73,4.8,4.8,0,0,0,.431-2.235Zm8.7-2.455a2.53,2.53,0,0,1,.765-1.912,2.773,2.773,0,0,1,2-.734,2.817,2.817,0,0,1,2.021.725,2.578,2.578,0,0,1,.765,1.964v.633a2.5,2.5,0,0,1-.765,1.907,3.157,3.157,0,0,1-4.021,0,2.559,2.559,0,0,1-.769-1.956Zm1.688.677a1.184,1.184,0,0,0,.3.848,1.044,1.044,0,0,0,.8.321,1,1,0,0,0,.782-.325,1.259,1.259,0,0,0,.29-.87v-.65a1.233,1.233,0,0,0-.29-.853,1.13,1.13,0,0,0-1.582,0,1.258,1.258,0,0,0-.3.892Zm4.43,6.521a2.5,2.5,0,0,1,.773-1.912,2.812,2.812,0,0,1,2-.725,2.841,2.841,0,0,1,2.017.716,2.564,2.564,0,0,1,.769,1.973v.633a2.517,2.517,0,0,1-.756,1.9,2.786,2.786,0,0,1-2.013.725,2.819,2.819,0,0,1-2.03-.729,2.548,2.548,0,0,1-.765-1.934Zm1.688.686a1.175,1.175,0,0,0,.316.826,1.032,1.032,0,0,0,.791.343q1.072,0,1.072-1.187v-.668a1.194,1.194,0,0,0-.3-.848,1.136,1.136,0,0,0-1.582,0,1.232,1.232,0,0,0-.3.875Zm-4.518,1.494-1.239-.668,6.249-10,1.239.668Z" transform="translate(405 3003)" fill="#12263f"/>
    <path id="Trazado_890178" data-name="Trazado 890178" d="M10.741,9.477h1.354a1.907,1.907,0,0,0,1.433-.483,1.771,1.771,0,0,0,.466-1.283,1.566,1.566,0,0,0-.461-1.2,1.788,1.788,0,0,0-1.27-.431,1.874,1.874,0,0,0-1.222.4,1.279,1.279,0,0,0-.492,1.042H8.008a3.124,3.124,0,0,1,.541-1.8A3.6,3.6,0,0,1,10.06,4.476a5.045,5.045,0,0,1,2.14-.448A4.785,4.785,0,0,1,15.382,5a3.314,3.314,0,0,1,1.151,2.676A2.693,2.693,0,0,1,16,9.292a3.483,3.483,0,0,1-1.406,1.134,3.18,3.18,0,0,1,1.613,1.16,3.147,3.147,0,0,1,.532,1.828,3.369,3.369,0,0,1-1.244,2.733A5,5,0,0,1,12.2,17.176a4.741,4.741,0,0,1-3.133-1.011A3.3,3.3,0,0,1,7.85,13.493h2.54a1.472,1.472,0,0,0,.541,1.178,1.992,1.992,0,0,0,1.332.457,2,2,0,0,0,1.419-.479,1.654,1.654,0,0,0,.514-1.27q0-1.916-2.109-1.916H10.741ZM27.1,11.709A6.483,6.483,0,0,1,26,15.77a3.835,3.835,0,0,1-3.217,1.406,3.862,3.862,0,0,1-3.2-1.38,6.293,6.293,0,0,1-1.134-3.955V9.485a6.4,6.4,0,0,1,1.112-4.069,3.864,3.864,0,0,1,3.2-1.389,3.867,3.867,0,0,1,3.2,1.375A6.273,6.273,0,0,1,27.1,9.354Zm-2.54-2.59A4.686,4.686,0,0,0,24.123,6.8a1.47,1.47,0,0,0-1.358-.726,1.444,1.444,0,0,0-1.323.691,4.385,4.385,0,0,0-.453,2.16V12.04a4.919,4.919,0,0,0,.426,2.327,1.451,1.451,0,0,0,1.367.761,1.426,1.426,0,0,0,1.345-.73,4.8,4.8,0,0,0,.431-2.235Zm8.7-2.455a2.53,2.53,0,0,1,.765-1.912,2.773,2.773,0,0,1,2-.734,2.817,2.817,0,0,1,2.021.725,2.578,2.578,0,0,1,.765,1.964v.633a2.5,2.5,0,0,1-.765,1.907,3.157,3.157,0,0,1-4.021,0,2.559,2.559,0,0,1-.769-1.956Zm1.688.677a1.184,1.184,0,0,0,.3.848,1.044,1.044,0,0,0,.8.321,1,1,0,0,0,.782-.325,1.259,1.259,0,0,0,.29-.87v-.65a1.233,1.233,0,0,0-.29-.853,1.13,1.13,0,0,0-1.582,0,1.258,1.258,0,0,0-.3.892Zm4.43,6.521a2.5,2.5,0,0,1,.773-1.912,2.812,2.812,0,0,1,2-.725,2.841,2.841,0,0,1,2.017.716,2.564,2.564,0,0,1,.769,1.973v.633a2.517,2.517,0,0,1-.756,1.9,2.786,2.786,0,0,1-2.013.725,2.819,2.819,0,0,1-2.03-.729,2.548,2.548,0,0,1-.765-1.934Zm1.688.686a1.175,1.175,0,0,0,.316.826,1.032,1.032,0,0,0,.791.343q1.072,0,1.072-1.187v-.668a1.194,1.194,0,0,0-.3-.848,1.136,1.136,0,0,0-1.582,0,1.232,1.232,0,0,0-.3.875Zm-4.518,1.494-1.239-.668,6.249-10,1.239.668Z" transform="translate(405 3088)" fill="#12263f"/>
    <path id="Trazado_890179" data-name="Trazado 890179" d="M14.327,17h-2.54V7.209l-3.032.94V6.084l5.3-1.9h.272ZM27.1,11.709A6.483,6.483,0,0,1,26,15.77a3.835,3.835,0,0,1-3.217,1.406,3.862,3.862,0,0,1-3.2-1.38,6.293,6.293,0,0,1-1.134-3.955V9.485a6.4,6.4,0,0,1,1.112-4.069,3.864,3.864,0,0,1,3.2-1.389,3.867,3.867,0,0,1,3.2,1.375A6.273,6.273,0,0,1,27.1,9.354Zm-2.54-2.59A4.686,4.686,0,0,0,24.123,6.8a1.47,1.47,0,0,0-1.358-.726,1.444,1.444,0,0,0-1.323.691,4.385,4.385,0,0,0-.453,2.16V12.04a4.919,4.919,0,0,0,.426,2.327,1.451,1.451,0,0,0,1.367.761,1.426,1.426,0,0,0,1.345-.73,4.8,4.8,0,0,0,.431-2.235Zm8.7-2.455a2.53,2.53,0,0,1,.765-1.912,2.773,2.773,0,0,1,2-.734,2.817,2.817,0,0,1,2.021.725,2.578,2.578,0,0,1,.765,1.964v.633a2.5,2.5,0,0,1-.765,1.907,3.157,3.157,0,0,1-4.021,0,2.559,2.559,0,0,1-.769-1.956Zm1.688.677a1.184,1.184,0,0,0,.3.848,1.044,1.044,0,0,0,.8.321,1,1,0,0,0,.782-.325,1.259,1.259,0,0,0,.29-.87v-.65a1.233,1.233,0,0,0-.29-.853,1.13,1.13,0,0,0-1.582,0,1.258,1.258,0,0,0-.3.892Zm4.43,6.521a2.5,2.5,0,0,1,.773-1.912,2.812,2.812,0,0,1,2-.725,2.841,2.841,0,0,1,2.017.716,2.564,2.564,0,0,1,.769,1.973v.633a2.517,2.517,0,0,1-.756,1.9,2.786,2.786,0,0,1-2.013.725,2.819,2.819,0,0,1-2.03-.729,2.548,2.548,0,0,1-.765-1.934Zm1.688.686a1.175,1.175,0,0,0,.316.826,1.032,1.032,0,0,0,.791.343q1.072,0,1.072-1.187v-.668a1.194,1.194,0,0,0-.3-.848,1.136,1.136,0,0,0-1.582,0,1.232,1.232,0,0,0-.3.875Zm-4.518,1.494-1.239-.668,6.249-10,1.239.668Z" transform="translate(405 3173)" fill="#12263f"/>
    <path id="Trazado_890180" data-name="Trazado 890180" d="M21.934,11.709a6.483,6.483,0,0,1-1.1,4.061,3.835,3.835,0,0,1-3.217,1.406,3.862,3.862,0,0,1-3.2-1.38,6.293,6.293,0,0,1-1.134-3.955V9.485A6.4,6.4,0,0,1,14.4,5.416a3.864,3.864,0,0,1,3.2-1.389A3.867,3.867,0,0,1,20.8,5.4a6.273,6.273,0,0,1,1.134,3.951Zm-2.54-2.59A4.686,4.686,0,0,0,18.959,6.8,1.47,1.47,0,0,0,17.6,6.075a1.444,1.444,0,0,0-1.323.691,4.385,4.385,0,0,0-.453,2.16V12.04a4.919,4.919,0,0,0,.426,2.327,1.451,1.451,0,0,0,1.367.761,1.426,1.426,0,0,0,1.345-.73,4.8,4.8,0,0,0,.431-2.235Zm8.7-2.455a2.53,2.53,0,0,1,.765-1.912,2.773,2.773,0,0,1,2-.734,2.817,2.817,0,0,1,2.021.725,2.578,2.578,0,0,1,.765,1.964v.633a2.5,2.5,0,0,1-.765,1.907,3.157,3.157,0,0,1-4.021,0A2.559,2.559,0,0,1,28.1,7.288Zm1.688.677a1.184,1.184,0,0,0,.3.848,1.044,1.044,0,0,0,.8.321,1,1,0,0,0,.782-.325,1.259,1.259,0,0,0,.29-.87v-.65a1.233,1.233,0,0,0-.29-.853,1.13,1.13,0,0,0-1.582,0,1.258,1.258,0,0,0-.3.892Zm4.43,6.521a2.5,2.5,0,0,1,.773-1.912,2.812,2.812,0,0,1,2-.725,2.841,2.841,0,0,1,2.017.716,2.564,2.564,0,0,1,.769,1.973v.633a2.517,2.517,0,0,1-.756,1.9,2.786,2.786,0,0,1-2.013.725,2.819,2.819,0,0,1-2.03-.729,2.548,2.548,0,0,1-.765-1.934Zm1.688.686a1.175,1.175,0,0,0,.316.826,1.032,1.032,0,0,0,.791.343q1.072,0,1.072-1.187v-.668a1.194,1.194,0,0,0-.3-.848,1.136,1.136,0,0,0-1.582,0,1.232,1.232,0,0,0-.3.875Zm-4.518,1.494-1.239-.668,6.249-10,1.239.668Z" transform="translate(405 3258)" fill="#12263f"/>
    <path id="Trazado_890181" data-name="Trazado 890181" d="M23.366,15.383a4.577,4.577,0,0,1-2.013,1.323,8.429,8.429,0,0,1-2.883.47,5.711,5.711,0,0,1-2.914-.725,4.836,4.836,0,0,1-1.934-2.1,7.408,7.408,0,0,1-.7-3.243v-.87a7.868,7.868,0,0,1,.646-3.318A4.779,4.779,0,0,1,15.434,4.77a5.367,5.367,0,0,1,2.852-.743,5.345,5.345,0,0,1,3.56,1.085,4.639,4.639,0,0,1,1.521,3.16H20.8a2.552,2.552,0,0,0-.778-1.608,2.484,2.484,0,0,0-1.657-.51,2.338,2.338,0,0,0-2.048,1.011,5.315,5.315,0,0,0-.712,3.006v.817a5.06,5.06,0,0,0,.765,3.041,2.618,2.618,0,0,0,2.241,1.028,2.925,2.925,0,0,0,2.118-.633V12.219h-2.4V10.276h5.036Zm7.313-5.511a6.9,6.9,0,0,0-.914-.07,1.86,1.86,0,0,0-1.89.976V17h-2.54V7.49h2.4l.07,1.134a2.354,2.354,0,0,1,2.118-1.31,2.662,2.662,0,0,1,.791.114ZM37.6,16.033a3.185,3.185,0,0,1-2.6,1.143A3,3,0,0,1,32.66,16.3a3.752,3.752,0,0,1-.822-2.575V7.49h2.54v6.151q0,1.487,1.354,1.487a1.834,1.834,0,0,0,1.775-.9V7.49h2.549V17H37.666Zm12.938-3.7a5.7,5.7,0,0,1-1,3.52,3.2,3.2,0,0,1-2.694,1.323,2.963,2.963,0,0,1-2.329-1v4.482h-2.54V7.49h2.355l.088.932a2.985,2.985,0,0,1,2.408-1.107,3.22,3.22,0,0,1,2.733,1.3,5.858,5.858,0,0,1,.976,3.586Zm-2.54-.185a3.743,3.743,0,0,0-.47-2.048,1.532,1.532,0,0,0-1.367-.721,1.663,1.663,0,0,0-1.644.914v3.894a1.692,1.692,0,0,0,1.661.94Q47.993,15.128,47.993,12.148Zm3.718.009a5.64,5.64,0,0,1,.545-2.522,3.989,3.989,0,0,1,1.569-1.714A4.577,4.577,0,0,1,56.2,7.314a4.33,4.33,0,0,1,3.142,1.178,4.727,4.727,0,0,1,1.358,3.2l.018.65A4.97,4.97,0,0,1,59.5,15.853a4.735,4.735,0,0,1-6.561,0,5.058,5.058,0,0,1-1.226-3.586Zm2.54.18a3.555,3.555,0,0,0,.51,2.073,1.831,1.831,0,0,0,2.9.009,3.89,3.89,0,0,0,.519-2.267,3.519,3.519,0,0,0-.519-2.06A1.686,1.686,0,0,0,56.2,9.362a1.658,1.658,0,0,0-1.441.726A3.955,3.955,0,0,0,54.25,12.338Zm19.907,2.026H69.535L68.656,17h-2.8L70.616,4.2h2.443L77.849,17h-2.8Zm-3.911-2.136h3.2l-1.608-4.79Z" transform="translate(532 3303)" fill="#12263f"/>
    <path id="Trazado_890182" data-name="Trazado 890182" d="M23.678,15.383a4.577,4.577,0,0,1-2.013,1.323,8.429,8.429,0,0,1-2.883.47,5.711,5.711,0,0,1-2.914-.725,4.836,4.836,0,0,1-1.934-2.1,7.408,7.408,0,0,1-.7-3.243v-.87a7.868,7.868,0,0,1,.646-3.318A4.779,4.779,0,0,1,15.746,4.77,5.367,5.367,0,0,1,18.6,4.027a5.345,5.345,0,0,1,3.56,1.085,4.639,4.639,0,0,1,1.521,3.16H21.111a2.552,2.552,0,0,0-.778-1.608,2.484,2.484,0,0,0-1.657-.51,2.338,2.338,0,0,0-2.048,1.011,5.315,5.315,0,0,0-.712,3.006v.817a5.06,5.06,0,0,0,.765,3.041,2.618,2.618,0,0,0,2.241,1.028,2.925,2.925,0,0,0,2.118-.633V12.219h-2.4V10.276h5.036ZM30.99,9.872a6.9,6.9,0,0,0-.914-.07,1.86,1.86,0,0,0-1.89.976V17h-2.54V7.49h2.4l.07,1.134a2.354,2.354,0,0,1,2.118-1.31,2.662,2.662,0,0,1,.791.114Zm6.917,6.161a3.185,3.185,0,0,1-2.6,1.143,3,3,0,0,1-2.333-.879,3.752,3.752,0,0,1-.822-2.575V7.49h2.54v6.151q0,1.487,1.354,1.487a1.834,1.834,0,0,0,1.775-.9V7.49h2.549V17H37.978Zm12.938-3.7a5.7,5.7,0,0,1-1,3.52,3.2,3.2,0,0,1-2.694,1.323,2.963,2.963,0,0,1-2.329-1v4.482h-2.54V7.49H44.64l.088.932a2.985,2.985,0,0,1,2.408-1.107,3.22,3.22,0,0,1,2.733,1.3,5.858,5.858,0,0,1,.976,3.586Zm-2.54-.185a3.743,3.743,0,0,0-.47-2.048,1.532,1.532,0,0,0-1.367-.721,1.663,1.663,0,0,0-1.644.914v3.894a1.692,1.692,0,0,0,1.661.94Q48.3,15.128,48.3,12.148Zm3.718.009a5.64,5.64,0,0,1,.545-2.522,3.989,3.989,0,0,1,1.569-1.714,4.577,4.577,0,0,1,2.377-.606,4.33,4.33,0,0,1,3.142,1.178,4.727,4.727,0,0,1,1.358,3.2l.018.65a4.97,4.97,0,0,1-1.222,3.511,4.735,4.735,0,0,1-6.561,0,5.058,5.058,0,0,1-1.226-3.586Zm2.54.18a3.555,3.555,0,0,0,.51,2.073,1.831,1.831,0,0,0,2.9.009,3.89,3.89,0,0,0,.519-2.267,3.519,3.519,0,0,0-.519-2.06,1.686,1.686,0,0,0-1.459-.731,1.658,1.658,0,0,0-1.441.726A3.955,3.955,0,0,0,54.563,12.338ZM67.245,17V4.2h4.482a5.886,5.886,0,0,1,3.533.892,3.05,3.05,0,0,1,1.2,2.615,2.891,2.891,0,0,1-.483,1.657,2.792,2.792,0,0,1-1.345,1.05,2.7,2.7,0,0,1,1.551.993,2.936,2.936,0,0,1,.567,1.828,3.377,3.377,0,0,1-1.178,2.795A5.3,5.3,0,0,1,72.22,17Zm2.637-5.572v3.454h2.259a2.18,2.18,0,0,0,1.455-.444,1.522,1.522,0,0,0,.523-1.226A1.607,1.607,0,0,0,72.3,11.428Zm0-1.863h1.951q2-.035,2-1.591a1.47,1.47,0,0,0-.505-1.252,2.658,2.658,0,0,0-1.6-.382H69.882Z" transform="translate(716 3303)" fill="#12263f"/>
    <path id="Trazado_890183" data-name="Trazado 890183" d="M23.533,15.383a4.577,4.577,0,0,1-2.013,1.323,8.429,8.429,0,0,1-2.883.47,5.711,5.711,0,0,1-2.914-.725,4.836,4.836,0,0,1-1.934-2.1,7.408,7.408,0,0,1-.7-3.243v-.87a7.868,7.868,0,0,1,.646-3.318A4.779,4.779,0,0,1,15.6,4.77a5.367,5.367,0,0,1,2.852-.743,5.345,5.345,0,0,1,3.56,1.085,4.639,4.639,0,0,1,1.521,3.16H20.966a2.552,2.552,0,0,0-.778-1.608,2.484,2.484,0,0,0-1.657-.51,2.338,2.338,0,0,0-2.048,1.011,5.315,5.315,0,0,0-.712,3.006v.817a5.06,5.06,0,0,0,.765,3.041,2.618,2.618,0,0,0,2.241,1.028,2.925,2.925,0,0,0,2.118-.633V12.219H18.5V10.276h5.036Zm7.313-5.511a6.9,6.9,0,0,0-.914-.07,1.86,1.86,0,0,0-1.89.976V17H25.5V7.49h2.4l.07,1.134a2.354,2.354,0,0,1,2.118-1.31,2.662,2.662,0,0,1,.791.114Zm6.917,6.161a3.185,3.185,0,0,1-2.6,1.143,3,3,0,0,1-2.333-.879,3.752,3.752,0,0,1-.822-2.575V7.49h2.54v6.151q0,1.487,1.354,1.487a1.834,1.834,0,0,0,1.775-.9V7.49h2.549V17H37.833Zm12.938-3.7a5.7,5.7,0,0,1-1,3.52,3.2,3.2,0,0,1-2.694,1.323,2.963,2.963,0,0,1-2.329-1v4.482h-2.54V7.49h2.355l.088.932a2.985,2.985,0,0,1,2.408-1.107,3.22,3.22,0,0,1,2.733,1.3A5.858,5.858,0,0,1,50.7,12.2Zm-2.54-.185a3.743,3.743,0,0,0-.47-2.048,1.532,1.532,0,0,0-1.367-.721,1.663,1.663,0,0,0-1.644.914v3.894a1.692,1.692,0,0,0,1.661.94Q48.16,15.128,48.16,12.148Zm3.718.009a5.64,5.64,0,0,1,.545-2.522,3.989,3.989,0,0,1,1.569-1.714,4.577,4.577,0,0,1,2.377-.606,4.33,4.33,0,0,1,3.142,1.178,4.727,4.727,0,0,1,1.358,3.2l.018.65a4.97,4.97,0,0,1-1.222,3.511,4.735,4.735,0,0,1-6.561,0,5.058,5.058,0,0,1-1.226-3.586Zm2.54.18a3.555,3.555,0,0,0,.51,2.073,1.831,1.831,0,0,0,2.9.009,3.89,3.89,0,0,0,.519-2.267,3.519,3.519,0,0,0-.519-2.06,1.686,1.686,0,0,0-1.459-.731,1.658,1.658,0,0,0-1.441.726A3.955,3.955,0,0,0,54.417,12.338Zm22.729.4a4.528,4.528,0,0,1-1.525,3.252A5.355,5.355,0,0,1,72,17.176a4.816,4.816,0,0,1-3.872-1.657,6.793,6.793,0,0,1-1.411-4.548v-.782a7.671,7.671,0,0,1,.65-3.252,4.874,4.874,0,0,1,1.859-2.158,5.809,5.809,0,0,1,6.376.435,4.866,4.866,0,0,1,1.564,3.331H74.527a2.673,2.673,0,0,0-.69-1.8,2.555,2.555,0,0,0-1.806-.558,2.24,2.24,0,0,0-1.973.945,5.3,5.3,0,0,0-.672,2.931v.967a5.667,5.667,0,0,0,.628,3.032A2.2,2.2,0,0,0,72,15.022a2.6,2.6,0,0,0,1.824-.558,2.521,2.521,0,0,0,.69-1.727Z" transform="translate(899 3303)" fill="#12263f"/>
    <path id="Trazado_890184" data-name="Trazado 890184" d="M23.572,15.383a4.577,4.577,0,0,1-2.013,1.323,8.429,8.429,0,0,1-2.883.47,5.711,5.711,0,0,1-2.914-.725,4.836,4.836,0,0,1-1.934-2.1,7.408,7.408,0,0,1-.7-3.243v-.87a7.868,7.868,0,0,1,.646-3.318A4.779,4.779,0,0,1,15.64,4.77a5.367,5.367,0,0,1,2.852-.743,5.345,5.345,0,0,1,3.56,1.085,4.639,4.639,0,0,1,1.521,3.16H21.006a2.552,2.552,0,0,0-.778-1.608,2.484,2.484,0,0,0-1.657-.51,2.338,2.338,0,0,0-2.048,1.011,5.315,5.315,0,0,0-.712,3.006v.817a5.06,5.06,0,0,0,.765,3.041,2.618,2.618,0,0,0,2.241,1.028,2.925,2.925,0,0,0,2.118-.633V12.219h-2.4V10.276h5.036Zm7.313-5.511a6.9,6.9,0,0,0-.914-.07,1.86,1.86,0,0,0-1.89.976V17h-2.54V7.49h2.4l.07,1.134a2.354,2.354,0,0,1,2.118-1.31,2.662,2.662,0,0,1,.791.114ZM37.8,16.033a3.185,3.185,0,0,1-2.6,1.143,3,3,0,0,1-2.333-.879,3.752,3.752,0,0,1-.822-2.575V7.49h2.54v6.151q0,1.487,1.354,1.487a1.834,1.834,0,0,0,1.775-.9V7.49h2.549V17H37.872Zm12.938-3.7a5.7,5.7,0,0,1-1,3.52,3.2,3.2,0,0,1-2.694,1.323,2.963,2.963,0,0,1-2.329-1v4.482h-2.54V7.49h2.355l.088.932A2.985,2.985,0,0,1,47.03,7.314a3.22,3.22,0,0,1,2.733,1.3,5.858,5.858,0,0,1,.976,3.586Zm-2.54-.185a3.743,3.743,0,0,0-.47-2.048,1.532,1.532,0,0,0-1.367-.721,1.663,1.663,0,0,0-1.644.914v3.894a1.692,1.692,0,0,0,1.661.94Q48.2,15.128,48.2,12.148Zm3.718.009a5.64,5.64,0,0,1,.545-2.522,3.989,3.989,0,0,1,1.569-1.714,4.577,4.577,0,0,1,2.377-.606A4.33,4.33,0,0,1,59.55,8.492a4.727,4.727,0,0,1,1.358,3.2l.018.65A4.97,4.97,0,0,1,59.7,15.853a4.735,4.735,0,0,1-6.561,0,5.058,5.058,0,0,1-1.226-3.586Zm2.54.18a3.555,3.555,0,0,0,.51,2.073,1.831,1.831,0,0,0,2.9.009,3.89,3.89,0,0,0,.519-2.267,3.519,3.519,0,0,0-.519-2.06,1.686,1.686,0,0,0-1.459-.731,1.658,1.658,0,0,0-1.441.726A3.955,3.955,0,0,0,54.457,12.338ZM67.14,17V4.2h3.938a5.98,5.98,0,0,1,3.019.76,5.3,5.3,0,0,1,2.079,2.162,6.669,6.669,0,0,1,.747,3.186V10.9a6.688,6.688,0,0,1-.734,3.173,5.256,5.256,0,0,1-2.07,2.153A6.025,6.025,0,0,1,71.1,17ZM69.776,6.339v8.543h1.274a2.863,2.863,0,0,0,2.364-1.011,4.567,4.567,0,0,0,.835-2.892V10.3a4.64,4.64,0,0,0-.809-2.958,2.854,2.854,0,0,0-2.364-1.006Z" transform="translate(1083 3303)" fill="#12263f"/>
    <path id="Trazado_890108" data-name="Trazado 890108" d="M-4308-8571v-123.5" transform="translate(4776 11702)" fill="none" stroke="#c2c2c2" stroke-width="2"/>
    <g id="Grupo_1106275" data-name="Grupo 1106275">
      <rect id="Rectángulo_404639" data-name="Rectángulo 404639" width="51" height="216" transform="translate(521 3063)" fill="#3498db"/>
      <rect id="Rectángulo_404640" data-name="Rectángulo 404640" width="51" height="148" transform="translate(582 3131)" fill="#e74c3c"/>
    </g>
    <g id="Grupo_1106276" data-name="Grupo 1106276">
      <rect id="Rectángulo_404641" data-name="Rectángulo 404641" width="51" height="174" transform="translate(705 3105)" fill="#3498db"/>
      <rect id="Rectángulo_404642" data-name="Rectángulo 404642" width="51" height="198" transform="translate(766 3081)" fill="#e74c3c"/>
    </g>
    <g id="Grupo_1106277" data-name="Grupo 1106277">
      <rect id="Rectángulo_404643" data-name="Rectángulo 404643" width="51" height="77" transform="translate(888 3202)" fill="#3498db"/>
      <rect id="Rectángulo_404644" data-name="Rectángulo 404644" width="51" height="198" transform="translate(949 3081)" fill="#e74c3c"/>
    </g>
    <g id="Grupo_1106278" data-name="Grupo 1106278">
      <rect id="Rectángulo_404645" data-name="Rectángulo 404645" width="51" height="148" transform="translate(1072 3131)" fill="#3498db"/>
      <rect id="Rectángulo_404646" data-name="Rectángulo 404646" width="51" height="99" transform="translate(1133 3180)" fill="#e74c3c"/>
    </g>
    <path id="Trazado_890109" data-name="Trazado 890109" d="M-4308-8597h728.667" transform="translate(4776 11702)" fill="none" stroke="#c2c2c2" stroke-width="2" stroke-dasharray="5 7"/>
    <path id="Trazado_890110" data-name="Trazado 890110" d="M-4308-8597h728.667" transform="translate(4776 11789)" fill="none" stroke="#c2c2c2" stroke-width="2" stroke-dasharray="5 7"/>
    <path id="Trazado_890111" data-name="Trazado 890111" d="M-4308-8644.667v221.334h728" transform="translate(4776 11702)" fill="none" stroke="#12263f" stroke-width="2"/>
  </g>
</svg>
